<?xml version="1.0" standalone="no"?>
<!DOCTYPE svg PUBLIC "-//W3C//DTD SVG 20010904//EN" "http://www.w3.org/TR/2001/REC-SVG-20010904/DTD/svg10.dtd">
<!-- Created using Krita: https://krita.org -->
<svg xmlns="http://www.w3.org/2000/svg" 
    xmlns:xlink="http://www.w3.org/1999/xlink"
    xmlns:krita="http://krita.org/namespaces/svg/krita"
    xmlns:sodipodi="http://sodipodi.sourceforge.net/DTD/sodipodi-0.dtd"
    width="2000pt"
    height="2000pt"
    viewBox="0 0 2000 2000">
<defs>
  <linearGradient id="gradient0" gradientUnits="objectBoundingBox" x1="0" y1="0" x2="1" y2="1" spreadMethod="pad">
   <stop stop-color="#22eef0" offset="0" stop-opacity="1"/>
   <stop stop-color="#ecfdff" offset="1" stop-opacity="1"/>
  </linearGradient>
 </defs>
<path id="shape0" transform="matrix(0.892857142857143 0 0 0.892857142857143 464.999999999932 324.999999999944)" fill="url(#gradient0)" fill-rule="evenodd" stroke="#ffffff" stroke-width="1" stroke-linecap="square" stroke-linejoin="bevel" d="M840 400L840 440L839.98 441.625L839.91 443.238L839.81 444.841L839.66 446.432L839.47 448.011L839.24 449.576L838.97 451.129L838.66 452.667L838.31 454.191L837.92 455.7L837.5 457.194L837.04 458.671L836.54 460.132L836 461.575L835.43 463.001L834.83 464.409L834.19 465.797L833.51 467.167L832.8 468.516L832.06 469.845L831.29 471.153L830.48 472.439L829.65 473.703L828.78 474.945L827.88 476.163L826.95 477.358L826 478.529L825.01 479.674L824 480.795L822.96 481.889L821.89 482.957L820.79 483.998L819.67 485.011L818.53 485.997L817.36 486.954L816.16 487.881L814.95 488.779L813.7 489.647L812.44 490.483L811.15 491.289L809.84 492.063L808.52 492.804L807.17 493.512L805.8 494.187L804.41 494.827L803 495.433L801.58 496.004L800.13 496.539L798.67 497.038L797.19 497.5L795.7 497.925L794.19 498.312L792.67 498.66L791.13 498.97L789.58 499.24L788.01 499.47L786.43 499.659L784.84 499.808L783.24 499.914L781.62 499.978L780 500L500 500L500 780L499.978 781.62L499.914 783.24L499.808 784.84L499.659 786.43L499.47 788.01L499.24 789.58L498.97 791.13L498.66 792.67L498.312 794.19L497.925 795.7L497.5 797.19L497.038 798.67L496.539 800.13L496.004 801.58L495.433 803L494.827 804.41L494.187 805.8L493.512 807.17L492.804 808.52L492.063 809.84L491.289 811.15L490.483 812.44L489.647 813.7L488.779 814.95L487.881 816.16L486.954 817.36L485.997 818.53L485.011 819.67L483.998 820.79L482.957 821.89L481.889 822.96L480.795 824L479.674 825.01L478.529 826L477.358 826.95L476.163 827.88L474.945 828.78L473.703 829.65L472.439 830.48L471.153 831.29L469.845 832.06L468.516 832.8L467.167 833.51L465.797 834.19L464.409 834.83L463.001 835.43L461.575 836L460.132 836.54L458.671 837.04L457.194 837.5L455.7 837.92L454.191 838.31L452.667 838.66L451.129 838.97L449.576 839.24L448.011 839.47L446.432 839.66L444.841 839.81L443.238 839.91L441.625 839.98L440 840L400 840L398.375 839.98L396.762 839.91L395.159 839.81L393.568 839.66L391.989 839.47L390.424 839.24L388.871 838.97L387.333 838.66L385.809 838.31L384.3 837.92L382.806 837.5L381.329 837.04L379.868 836.54L378.425 836L376.999 835.43L375.591 834.83L374.203 834.19L372.833 833.51L371.484 832.8L370.155 832.06L368.847 831.29L367.561 830.48L366.297 829.65L365.055 828.78L363.837 827.88L362.642 826.95L361.471 826L360.326 825.01L359.205 824L358.111 822.96L357.043 821.89L356.002 820.79L354.989 819.67L354.003 818.53L353.046 817.36L352.119 816.16L351.221 814.95L350.353 813.7L349.517 812.44L348.711 811.15L347.937 809.84L347.196 808.52L346.488 807.17L345.813 805.8L345.173 804.41L344.567 803L343.996 801.58L343.461 800.13L342.962 798.67L342.5 797.19L342.075 795.7L341.688 794.19L341.34 792.67L341.03 791.13L340.76 789.58L340.53 788.01L340.341 786.43L340.192 784.84L340.086 783.24L340.022 781.62L340 780L340 500L60 500L58.375 499.978L56.762 499.914L55.159 499.808L53.568 499.659L51.989 499.47L50.424 499.24L48.871 498.97L47.333 498.66L45.809 498.312L44.3 497.925L42.806 497.5L41.329 497.038L39.868 496.539L38.425 496.004L36.999 495.433L35.591 494.827L34.203 494.187L32.833 493.512L31.484 492.804L30.155 492.063L28.847 491.289L27.561 490.483L26.297 489.647L25.055 488.779L23.837 487.881L22.642 486.954L21.471 485.997L20.326 485.011L19.205 483.998L18.111 482.957L17.043 481.889L16.002 480.795L14.989 479.674L14.003 478.529L13.046 477.358L12.119 476.163L11.221 474.945L10.353 473.703L9.517 472.439L8.711 471.153L7.937 469.845L7.196 468.516L6.488 467.167L5.813 465.797L5.173 464.409L4.567 463.001L3.996 461.575L3.461 460.132L2.962 458.671L2.5 457.194L2.075 455.7L1.688 454.191L1.34 452.667L1.03 451.129L0.76 449.576L0.53 448.011L0.341 446.432L0.192 444.841L0.086 443.238L0.022 441.625L0 440L0 400L0.022 398.375L0.086 396.762L0.192 395.159L0.341 393.568L0.53 391.989L0.76 390.424L1.03 388.871L1.34 387.333L1.688 385.809L2.075 384.3L2.5 382.806L2.962 381.329L3.461 379.868L3.996 378.425L4.567 376.999L5.173 375.591L5.813 374.203L6.488 372.833L7.196 371.484L7.937 370.155L8.711 368.847L9.517 367.561L10.353 366.297L11.221 365.055L12.119 363.837L13.046 362.642L14.003 361.471L14.989 360.326L16.002 359.205L17.043 358.111L18.111 357.043L19.205 356.002L20.326 354.989L21.471 354.003L22.642 353.046L23.837 352.119L25.055 351.221L26.297 350.353L27.561 349.517L28.847 348.711L30.155 347.937L31.484 347.196L32.833 346.488L34.203 345.813L35.591 345.173L36.999 344.567L38.425 343.996L39.868 343.461L41.329 342.962L42.806 342.5L44.3 342.075L45.809 341.688L47.333 341.34L48.871 341.03L50.424 340.76L51.989 340.53L53.568 340.341L55.159 340.192L56.762 340.086L58.375 340.022L60 340L340 340L340 60L340.022 58.375L340.086 56.762L340.192 55.159L340.341 53.568L340.53 51.989L340.76 50.424L341.03 48.871L341.34 47.333L341.688 45.809L342.075 44.3L342.5 42.806L342.962 41.329L343.461 39.868L343.996 38.425L344.567 36.999L345.173 35.591L345.813 34.203L346.488 32.833L347.196 31.484L347.937 30.155L348.711 28.847L349.517 27.561L350.353 26.297L351.221 25.055L352.119 23.837L353.046 22.642L354.003 21.471L354.989 20.326L356.002 19.205L357.043 18.111L358.111 17.043L359.205 16.002L360.326 14.989L361.471 14.003L362.642 13.046L363.837 12.119L365.055 11.221L366.297 10.353L367.561 9.517L368.847 8.711L370.155 7.937L371.484 7.196L372.833 6.488L374.203 5.813L375.591 5.173L376.999 4.567L378.425 3.996L379.868 3.461L381.329 2.962L382.806 2.5L384.3 2.075L385.809 1.688L387.333 1.34L388.871 1.03L390.424 0.76L391.989 0.53L393.568 0.341L395.159 0.192L396.762 0.086L398.375 0.022L400 0L440 0L441.625 0.022L443.238 0.086L444.841 0.192L446.432 0.341L448.011 0.53L449.576 0.76L451.129 1.03L452.667 1.34L454.191 1.688L455.7 2.075L457.194 2.5L458.671 2.962L460.132 3.461L461.575 3.996L463.001 4.567L464.409 5.173L465.797 5.813L467.167 6.488L468.516 7.196L469.845 7.937L471.153 8.711L472.439 9.517L473.703 10.353L474.945 11.221L476.163 12.119L477.358 13.046L478.529 14.003L479.674 14.989L480.795 16.002L481.889 17.043L482.957 18.111L483.998 19.205L485.011 20.326L485.997 21.471L486.954 22.642L487.881 23.837L488.779 25.055L489.647 26.297L490.483 27.561L491.289 28.847L492.063 30.155L492.804 31.484L493.512 32.833L494.187 34.203L494.827 35.591L495.433 36.999L496.004 38.425L496.539 39.868L497.038 41.329L497.5 42.806L497.925 44.3L498.312 45.809L498.66 47.333L498.97 48.871L499.24 50.424L499.47 51.989L499.659 53.568L499.808 55.159L499.914 56.762L499.978 58.375L500 60L500 340L780 340L781.62 340.022L783.24 340.086L784.84 340.192L786.43 340.341L788.01 340.53L789.58 340.76L791.13 341.03L792.67 341.34L794.19 341.688L795.7 342.075L797.19 342.5L798.67 342.962L800.13 343.461L801.58 343.996L803 344.567L804.41 345.173L805.8 345.813L807.17 346.488L808.52 347.196L809.84 347.937L811.15 348.711L812.44 349.517L813.7 350.353L814.95 351.221L816.16 352.119L817.36 353.046L818.53 354.003L819.67 354.989L820.79 356.002L821.89 357.043L822.96 358.111L824 359.205L825.01 360.326L826 361.471L826.95 362.642L827.88 363.837L828.78 365.055L829.65 366.297L830.48 367.561L831.29 368.847L832.06 370.155L832.8 371.484L833.51 372.833L834.19 374.203L834.83 375.591L835.43 376.999L836 378.425L836.54 379.868L837.04 381.329L837.5 382.806L837.92 384.3L838.31 385.809L838.66 387.333L838.97 388.871L839.24 390.424L839.47 391.989L839.66 393.568L839.81 395.159L839.91 396.762L839.98 398.375L840 400" sodipodi:nodetypes="ccccccccccccccccccccccccccccccccccccccccccccccccccccccccccccccccccccccccccccccccccccccccccccccccccccccccccccccccccccccccccccccccccccccccccccccccccccccccccccccccccccccccccccccccccccccccccccccccccccccccccccccccccccccccccccccccccccccccccccccccccccccccccccccccccccccccccccccccccccccccccccccccccccccccccccccccccccccccccccccccccccccccccccccccccccccccccccccccccccccccccccccccccccccccccccccccccccccccccccccccccccccccccccccccccccccccccccccccccccccccccccccccccccccccccccccccccccccccccccccccccccccccccccccccccccc"/><path id="shape01" transform="matrix(0.987761566358676 0.155971433360391 -0.155971433360391 0.987761566358676 407.808212162211 111.161570472021)" fill="none" stroke="#404040" stroke-width="121.99999999999" stroke-linecap="square" stroke-linejoin="round" d="M1040 520L1039.82 506.366L1039.3 492.819L1038.44 479.362L1037.23 466.001L1035.69 452.739L1033.82 439.58L1031.62 426.529L1029.1 413.591L1026.27 400.769L1023.12 388.067L1019.66 375.491L1015.89 363.044L1011.83 350.731L1007.47 338.555L1002.81 326.522L997.87 314.635L992.65 302.898L987.15 291.317L981.37 279.895L975.32 268.637L969 257.546L962.43 246.628L955.59 235.885L948.5 225.324L941.17 214.947L933.58 204.76L925.76 194.767L917.7 184.971L909.41 175.377L900.89 165.989L892.15 156.813L883.19 147.851L874.01 139.108L864.62 130.589L855.03 122.297L845.23 114.238L835.24 106.415L825.05 98.833L814.68 91.495L804.11 84.407L793.37 77.572L782.45 70.995L771.36 64.68L760.1 58.632L748.68 52.853L737.1 47.35L725.37 42.126L713.478 37.185L701.445 32.533L689.269 28.172L676.956 24.107L664.509 20.343L651.933 16.884L639.231 13.734L626.409 10.897L613.471 8.378L600.42 6.181L587.261 4.31L573.999 2.77L560.638 1.564L547.181 0.698L533.634 0.175L520 0L506.366 0.175L492.819 0.698L479.362 1.564L466.001 2.77L452.739 4.31L439.58 6.181L426.529 8.378L413.591 10.897L400.769 13.734L388.067 16.884L375.491 20.343L363.044 24.107L350.731 28.172L338.555 32.533L326.522 37.185L314.635 42.126L302.898 47.35L291.317 52.853L279.895 58.632L268.637 64.68L257.546 70.995L246.628 77.572L235.885 84.407L225.324 91.495L214.947 98.833L204.76 106.415L194.767 114.238L184.971 122.297L175.377 130.589L165.989 139.108L156.813 147.851L147.851 156.813L139.108 165.989L130.589 175.377L122.297 184.971L114.238 194.767L106.415 204.76L98.833 214.947L91.495 225.324L84.407 235.885L77.572 246.628L70.995 257.546L64.68 268.637L58.632 279.895L52.853 291.317L47.35 302.898L42.126 314.635L37.185 326.522L32.533 338.555L28.172 350.731L24.107 363.044L20.343 375.491L16.884 388.067L13.734 400.769L10.897 413.591L8.378 426.529L6.181 439.58L4.31 452.739L2.77 466.001L1.564 479.362L0.698 492.819L0.175 506.366L0 520L0.175 533.634L0.698 547.181L1.564 560.638L2.77 573.999L4.31 587.261L6.181 600.42L8.378 613.471L10.897 626.409L13.734 639.231L16.884 651.933L20.343 664.509L24.107 676.956L28.172 689.269L32.533 701.445L37.185 713.478L42.126 725.365L47.35 737.102L52.853 748.683L58.632 760.105L64.68 771.363L70.995 782.454L77.572 793.372L84.407 804.11L91.495 814.68L98.833 825.05L106.415 835.24L114.238 845.23L122.297 855.03L130.589 864.62L139.108 874.01L147.851 883.19L156.813 892.15L165.989 900.89L175.377 909.41L184.971 917.7L194.767 925.76L204.76 933.58L214.947 941.17L225.324 948.5L235.885 955.59L246.628 962.43L257.546 969L268.637 975.32L279.895 981.37L291.317 987.15L302.898 992.65L314.635 997.87L326.522 1002.81L338.555 1007.47L350.731 1011.83L363.044 1015.89L375.491 1019.66L388.067 1023.12L400.769 1026.27L413.591 1029.1L426.529 1031.62L439.58 1033.82L452.739 1035.69L466.001 1037.23L479.362 1038.44L492.819 1039.3L506.366 1039.82L520 1040L533.634 1039.82L547.181 1039.3L560.638 1038.44L573.999 1037.23L587.261 1035.69L600.42 1033.82L613.471 1031.62L626.409 1029.1L639.231 1026.27L651.933 1023.12L664.509 1019.66L676.956 1015.89L689.269 1011.83L701.445 1007.47L713.478 1002.81L725.37 997.87L737.1 992.65L748.68 987.15L760.1 981.37L771.36 975.32L782.45 969L793.37 962.43L804.11 955.59L814.68 948.5L825.05 941.17L835.24 933.58L845.23 925.76L855.03 917.7L864.62 909.41L874.01 900.89L883.19 892.15L892.15 883.19L900.89 874.01L909.41 864.62L917.7 855.03L925.76 845.23L933.58 835.24L941.17 825.05L948.5 814.68L955.59 804.11L962.43 793.372L969 782.454L975.32 771.363L981.37 760.105L987.15 748.683L992.65 737.102L997.87 725.365L1002.81 713.478L1007.47 701.445L1011.83 689.269L1015.89 676.956L1019.66 664.509L1023.12 651.933L1026.27 639.231L1029.1 626.409L1031.62 613.471L1033.82 600.42L1035.69 587.261L1037.23 573.999L1038.44 560.638L1039.3 547.181L1039.82 533.634L1040 520M860 980L866.35 988.89L872.7 997.78L879.05 1006.67L885.4 1015.56L891.75 1024.44L898.1 1033.33L904.44 1042.22L910.79 1051.11L917.14 1060L923.49 1068.89L929.84 1077.78L936.19 1086.67L942.54 1095.56L948.89 1104.44L955.24 1113.33L961.59 1122.22L967.94 1131.11L974.29 1140L980.63 1148.89L986.98 1157.78L993.33 1166.67L999.68 1175.56L1006.03 1184.44L1012.38 1193.33L1018.73 1202.22L1025.08 1211.11L1031.43 1220L1037.78 1228.89L1044.13 1237.78L1050.48 1246.67L1056.83 1255.56L1060 1260L860 980M1060 1260L1063.17 1264.44L1069.52 1273.33L1075.87 1282.22L1082.22 1291.11L1088.57 1300L1094.92 1308.89L1101.27 1317.78L1107.62 1326.67L1113.97 1335.56L1120.32 1344.44L1126.67 1353.33L1133.02 1362.22L1139.37 1371.11L1145.71 1380L1152.06 1388.89L1158.41 1397.78L1164.76 1406.67L1171.11 1415.56L1177.46 1424.44L1183.81 1433.33L1190.16 1442.22L1196.51 1451.11L1202.86 1460L1209.21 1468.89L1215.56 1477.78L1221.9 1486.67L1228.25 1495.56L1234.6 1504.44L1240.95 1513.33L1247.3 1522.22L1253.65 1531.11L1260 1540L1060 1260" sodipodi:nodetypes="ccccccccccccccccccccccccccccccccccccccccccccccccccccccccccccccccccccccccccccccccccccccccccccccccccccccccccccccccccccccccccccccccccccccccccccccccccccccccccccccccccccccccccccccccccccccccccccccccccccccccccccccccccccccccccccccccccccccccccccccccccccccccccccccccccccccccccccccccccccccccccccccccccccccccccccccccccccccccccccccccc"/>
</svg>