<?xml version="1.0" standalone="no"?>
<!DOCTYPE svg PUBLIC "-//W3C//DTD SVG 20010904//EN" "http://www.w3.org/TR/2001/REC-SVG-20010904/DTD/svg10.dtd">
<!-- Created using Krita: https://krita.org -->
<svg xmlns="http://www.w3.org/2000/svg" 
    xmlns:xlink="http://www.w3.org/1999/xlink"
    xmlns:krita="http://krita.org/namespaces/svg/krita"
    xmlns:sodipodi="http://sodipodi.sourceforge.net/DTD/sodipodi-0.dtd"
    width="2000pt"
    height="2000pt"
    viewBox="0 0 2000 2000">
<defs>
  <linearGradient id="gradient0" gradientUnits="objectBoundingBox" x1="0" y1="0" x2="1" y2="1" spreadMethod="pad">
   <stop stop-color="#ecfdff" offset="0" stop-opacity="1"/>
   <stop stop-color="#1ce0a9" offset="0.363200008869171" stop-opacity="1"/>
   <stop stop-color="#41f0d1" offset="1" stop-opacity="1"/>
  </linearGradient>
 </defs>
<path id="shape0" transform="matrix(0.00658359798892937 0 0 0.00658359798892938 527.775892901326 897.186321958185)" fill="#4c4c4c" fill-rule="evenodd" stroke="#4c4c4c" stroke-width="4.9999999999996" stroke-linecap="square" stroke-linejoin="bevel" d="M8309.26 2382.85C7982.59 2670.06 7721.83 2422.13 7451.75 2249.97C6990.99 2003.21 6537.96 1746.61 5919.76 1700.23C5200.84 1634.34 4672.99 1739.18 4182.49 1877.4C3591.01 2117.43 3218.97 2430.61 2905.28 2763.24C2534.97 3155.23 2386.51 3612.14 2209.64 4060.74C2040.48 4526.41 2036.55 4997.25 2019.44 5467.67C1988.94 6089.1 2145.33 6506.38 2240.9 6960.58C2423.12 7553.94 2725.56 7938.05 3038.16 8304.45C3417.45 8686.7 3859.57 8969.95 4400.8 9097.02C4820.11 9213.25 5302.02 9268.22 5951.11 9159.55C6516.82 9080.84 7030.57 8911.56 7424.96 8534.25C7746.43 8253.99 8014.73 8149.24 8189.08 8354.48L8996.76 9219.48C8691.61 9610.12 8339 9890.05 7975.44 10144.4L10557.4 14748.2C10462.3 15650.6 9932.44 15535.3 9384.97 15378.9L6576.32 10720.2C6018.92 10884.2 5446.7 10900 4869.77 10868.7C4145.64 10866.6 3505.04 10706.3 2918.31 10444C2429.29 10217.6 1964.62 9958.04 1597.36 9566C1181.45 9184.98 838.222 8689.32 549.983 8106.96C287.732 7586.91 168.754 6983.66 55.7082 6376.96C-7.82464 5815.04 -13.5704 5241.55 21.0822 4659.99C133.7 3853.48 374.947 3234.38 695.887 2599.1C999.516 2066.57 1378.87 1640.74 1790.16 1259.91C2328.7 780.577 2918.42 546.89 3504.53 295.908C3896.24 187.482 4283.82 69.2668 4713.45 50.8931C5338.07 -31.0901 5945.49 -9.89544 6540.65 84.8689C7106.99 175.37 7540.95 379.355 7972.83 585.11C8444.88 813.767 8724.8 1096.46 9048.87 1366.74C9078.29 1383.86 8831.75 1722.56 8309.26 2382.85Z" sodipodi:nodetypes="cccccccccccccccccccccccccccccccc"/><path id="shape1" transform="matrix(0.0670692226311161 0 0 0.067069222631116 572.231296655395 964.788274179393)" fill="none" stroke="#ffffff" stroke-width="9.99999999999919" stroke-linecap="square" stroke-linejoin="bevel" d="M0 72.1333C49.0154 69.5536 90.0855 42.0727 126.5 0" sodipodi:nodetypes="cc"/><path id="shape2" transform="matrix(0.0670692226311161 0 0 0.067069222631116 574.322825565353 967.859049562515)" fill="none" stroke="#ffffff" stroke-width="9.99999999999919" stroke-linecap="square" stroke-linejoin="bevel" d="M0 78.8424C41.5954 71.6269 90.778 51.524 121.269 0" sodipodi:nodetypes="cc"/><path id="shape0" transform="matrix(0.0475051382039452 0 0 0.0475051382039454 546.387213167351 914.471893360337)" fill="url(#gradient0)" fill-rule="evenodd" stroke-opacity="0" stroke="#000000" stroke-width="0" stroke-linecap="square" stroke-linejoin="bevel" d="M744.224 354.393L744.224 389.832L744.207 391.272L744.145 392.701L744.056 394.121L743.923 395.53L743.755 396.929L743.551 398.316L743.312 399.692L743.037 401.055L742.727 402.405L742.382 403.742L742.01 405.065L741.602 406.374L741.159 407.668L740.681 408.947L740.176 410.21L739.644 411.458L739.077 412.688L738.474 413.901L737.845 415.097L737.19 416.274L736.508 417.433L735.79 418.572L735.055 419.692L734.284 420.792L733.486 421.872L732.662 422.93L731.821 423.968L730.944 424.982L730.049 425.975L729.127 426.945L728.179 427.891L727.205 428.813L726.212 429.711L725.202 430.584L724.166 431.432L723.103 432.254L722.031 433.049L720.923 433.818L719.807 434.559L718.664 435.273L717.503 435.959L716.334 436.615L715.138 437.243L713.924 437.841L712.692 438.408L711.443 438.944L710.185 439.45L708.9 439.924L707.607 440.366L706.296 440.776L704.975 441.152L703.638 441.495L702.291 441.804L700.927 442.078L699.553 442.317L698.162 442.521L696.762 442.689L695.354 442.821L693.936 442.915L692.501 442.971L691.066 442.991L442.991 442.991L442.991 691.066L442.971 692.501L442.915 693.936L442.821 695.354L442.689 696.762L442.521 698.162L442.317 699.553L442.078 700.927L441.804 702.291L441.495 703.638L441.152 704.975L440.776 706.296L440.366 707.607L439.924 708.9L439.45 710.185L438.944 711.443L438.408 712.692L437.841 713.924L437.243 715.138L436.615 716.334L435.959 717.503L435.273 718.664L434.559 719.807L433.818 720.923L433.049 722.031L432.254 723.103L431.432 724.166L430.584 725.202L429.711 726.212L428.813 727.205L427.891 728.179L426.945 729.127L425.975 730.049L424.982 730.944L423.968 731.821L422.93 732.662L421.872 733.486L420.792 734.284L419.692 735.055L418.572 735.79L417.433 736.508L416.274 737.19L415.097 737.845L413.901 738.474L412.688 739.077L411.458 739.644L410.21 740.176L408.947 740.681L407.668 741.159L406.374 741.602L405.065 742.01L403.742 742.382L402.405 742.727L401.055 743.037L399.692 743.312L398.316 743.551L396.929 743.755L395.53 743.923L394.121 744.056L392.701 744.145L391.272 744.207L389.832 744.224L354.393 744.224L352.953 744.207L351.524 744.145L350.104 744.056L348.694 743.923L347.295 743.755L345.908 743.551L344.533 743.312L343.17 743.037L341.82 742.727L340.483 742.382L339.159 742.01L337.85 741.602L336.556 741.159L335.278 740.681L334.014 740.176L332.767 739.644L331.537 739.077L330.323 738.474L329.128 737.845L327.95 737.19L326.792 736.508L325.652 735.79L324.532 735.055L323.432 734.284L322.353 733.486L321.294 732.662L320.257 731.821L319.242 730.944L318.249 730.049L317.28 729.127L316.333 728.179L315.411 727.205L314.514 726.212L313.64 725.202L312.792 724.166L311.971 723.103L311.175 722.031L310.406 720.923L309.666 719.807L308.951 718.664L308.266 717.503L307.609 716.334L306.982 715.138L306.384 713.924L305.817 712.692L305.28 711.443L304.774 710.185L304.3 708.9L303.858 707.607L303.449 706.296L303.072 704.975L302.729 703.638L302.421 702.291L302.146 700.927L301.907 699.553L301.703 698.162L301.536 696.762L301.404 695.354L301.31 693.936L301.253 692.501L301.234 691.066L301.234 442.991L53.1589 442.991L51.7192 442.971L50.2901 442.915L48.8699 442.821L47.4603 442.689L46.0613 442.521L44.6747 442.317L43.2988 442.078L41.9362 441.804L40.5859 441.495L39.249 441.152L37.9253 440.776L36.6167 440.366L35.3223 439.924L34.0438 439.45L32.7804 438.944L31.533 438.408L30.3032 437.841L29.0894 437.243L27.8942 436.615L26.7168 435.959L25.5579 435.273L24.4185 434.559L23.2987 433.818L22.1983 433.049L21.1191 432.254L20.0604 431.432L19.0229 430.584L18.0085 429.711L17.0153 428.813L16.046 427.891L15.0998 426.945L14.1775 425.975L13.28 424.982L12.4064 423.968L11.5585 422.93L10.7372 421.872L9.9416 420.792L9.17257 419.692L8.43189 418.572L7.71778 417.433L7.03204 416.274L6.37552 415.097L5.74825 413.901L5.15021 412.688L4.58318 411.458L4.04628 410.21L3.54038 408.947L3.06638 407.668L2.62428 406.374L2.21495 405.065L1.83841 403.742L1.49554 402.405L1.18722 401.055L0.912561 399.692L0.673346 398.316L0.46957 396.929L0.30212 395.53L0.170108 394.121L0.0761944 392.701L0.0194916 391.272L0 389.832L0 354.393L0.0194916 352.953L0.0761944 351.524L0.170108 350.104L0.30212 348.694L0.46957 347.295L0.673346 345.908L0.912561 344.533L1.18722 343.17L1.49554 341.82L1.83841 340.483L2.21495 339.159L2.62428 337.85L3.06638 336.556L3.54038 335.278L4.04628 334.014L4.58318 332.767L5.15021 331.537L5.74825 330.323L6.37552 329.128L7.03204 327.95L7.71778 326.792L8.43189 325.652L9.17257 324.532L9.9416 323.432L10.7372 322.353L11.5585 321.294L12.4064 320.257L13.28 319.242L14.1775 318.249L15.0998 317.28L16.046 316.333L17.0153 315.411L18.0085 314.514L19.0229 313.64L20.0604 312.792L21.1191 311.971L22.1983 311.175L23.2987 310.406L24.4185 309.666L25.5579 308.951L26.7168 308.266L27.8942 307.609L29.0894 306.982L30.3032 306.384L31.533 305.817L32.7804 305.28L34.0438 304.774L35.3223 304.3L36.6167 303.858L37.9253 303.449L39.249 303.072L40.5859 302.729L41.9362 302.421L43.2988 302.146L44.6747 301.907L46.0613 301.703L47.4603 301.536L48.8699 301.404L50.2901 301.31L51.7192 301.253L53.1589 301.234L301.234 301.234L301.234 53.1589L301.253 51.7192L301.31 50.2901L301.404 48.8699L301.536 47.4603L301.703 46.0613L301.907 44.6747L302.146 43.2988L302.421 41.9362L302.729 40.5859L303.072 39.249L303.449 37.9253L303.858 36.6167L304.3 35.3223L304.774 34.0438L305.28 32.7804L305.817 31.533L306.384 30.3032L306.982 29.0894L307.609 27.8942L308.266 26.7168L308.951 25.5579L309.666 24.4185L310.406 23.2987L311.175 22.1983L311.971 21.1191L312.792 20.0604L313.64 19.0229L314.514 18.0085L315.411 17.0153L316.333 16.046L317.28 15.0998L318.249 14.1775L319.242 13.28L320.257 12.4064L321.294 11.5585L322.353 10.7372L323.432 9.9416L324.532 9.17257L325.652 8.43189L326.792 7.71778L327.95 7.03204L329.128 6.37552L330.323 5.74825L331.537 5.15021L332.767 4.58318L334.014 4.04628L335.278 3.54038L336.556 3.06638L337.85 2.62428L339.159 2.21495L340.483 1.83841L341.82 1.49554L343.17 1.18722L344.533 0.912561L345.908 0.673346L347.295 0.46957L348.694 0.30212L350.104 0.170108L351.524 0.0761944L352.953 0.0194916L354.393 0L389.832 0L391.272 0.0194916L392.701 0.0761944L394.121 0.170108L395.53 0.30212L396.929 0.46957L398.316 0.673346L399.692 0.912561L401.055 1.18722L402.405 1.49554L403.742 1.83841L405.065 2.21495L406.374 2.62428L407.668 3.06638L408.947 3.54038L410.21 4.04628L411.458 4.58318L412.688 5.15021L413.901 5.74825L415.097 6.37552L416.274 7.03204L417.433 7.71778L418.572 8.43189L419.692 9.17257L420.792 9.9416L421.872 10.7372L422.93 11.5585L423.968 12.4064L424.982 13.28L425.975 14.1775L426.945 15.0998L427.891 16.046L428.813 17.0153L429.711 18.0085L430.584 19.0229L431.432 20.0604L432.254 21.1191L433.049 22.1983L433.818 23.2987L434.559 24.4185L435.273 25.5579L435.959 26.7168L436.615 27.8942L437.243 29.0894L437.841 30.3032L438.408 31.533L438.944 32.7804L439.45 34.0438L439.924 35.3223L440.366 36.6167L440.776 37.9253L441.152 39.249L441.495 40.5859L441.804 41.9362L442.078 43.2988L442.317 44.6747L442.521 46.0613L442.689 47.4603L442.821 48.8699L442.915 50.2901L442.971 51.7192L442.991 53.1589L442.991 301.234L691.066 301.234L692.501 301.253L693.936 301.31L695.354 301.404L696.762 301.536L698.162 301.703L699.553 301.907L700.927 302.146L702.291 302.421L703.638 302.729L704.975 303.072L706.296 303.449L707.607 303.858L708.9 304.3L710.185 304.774L711.443 305.28L712.692 305.817L713.924 306.384L715.138 306.982L716.334 307.609L717.503 308.266L718.664 308.951L719.807 309.666L720.923 310.406L722.031 311.175L723.103 311.971L724.166 312.792L725.202 313.64L726.212 314.514L727.205 315.411L728.179 316.333L729.127 317.28L730.049 318.249L730.944 319.242L731.821 320.257L732.662 321.294L733.486 322.353L734.284 323.432L735.055 324.532L735.79 325.652L736.508 326.792L737.19 327.95L737.845 329.128L738.474 330.323L739.077 331.537L739.644 332.767L740.176 334.014L740.681 335.278L741.159 336.556L741.602 337.85L742.01 339.159L742.382 340.483L742.727 341.82L743.037 343.17L743.312 344.533L743.551 345.908L743.755 347.295L743.923 348.694L744.056 350.104L744.145 351.524L744.207 352.953L744.224 354.393" sodipodi:nodetypes="ccccccccccccccccccccccccccccccccccccccccccccccccccccccccccccccccccccccccccccccccccccccccccccccccccccccccccccccccccccccccccccccccccccccccccccccccccccccccccccccccccccccccccccccccccccccccccccccccccccccccccccccccccccccccccccccccccccccccccccccccccccccccccccccccccccccccccccccccccccccccccccccccccccccccccccccccccccccccccccccccccccccccccccccccccccccccccccccccccccccccccccccccccccccccccccccccccccccccccccccccccccccccccccccccccccccccccccccccccccccccccccccccccccccccccccccccccccccccccccccccccccccccccccccccccccc"/><text id="shape01" krita:useRichText="true" krita:textVersion="2" transform="translate(281.999985107615, 967.999949936236)" fill="#404040" fill-opacity="0.980392156862745" stroke-opacity="0" stroke="#000000" stroke-width="0" stroke-linecap="square" stroke-linejoin="bevel" font-family="Lato" font-size="100" font-size-adjust="0.42215" font-stretch="normal" font-weight="700" letter-spacing="0" word-spacing="0"><tspan><tspan x="0">F</tspan><tspan fill="#50e7be" fill-opacity="0.980392156862745">IND</tspan></tspan></text><text id="shape02" krita:useRichText="true" krita:textVersion="2" transform="translate(587.035906226934, 967.952415034447)" fill="#50e7be" fill-opacity="0.980392156862745" stroke-opacity="0" stroke="#000000" stroke-width="0" stroke-linecap="square" stroke-linejoin="bevel" font-family="Lato" font-size="100" font-size-adjust="0.42215" font-stretch="normal" font-weight="700" letter-spacing="0" word-spacing="0"><tspan><tspan x="0">L</tspan><tspan fill="#50e7be" fill-opacity="0.992156862745098">INICS</tspan></tspan></text><text id="shape03" krita:useRichText="true" krita:textVersion="2" transform="translate(897.712474772105, 967.624923675368)" fill="#404040" stroke-opacity="0" stroke="#000000" stroke-width="0" stroke-linecap="square" stroke-linejoin="bevel" font-family="Lato" font-size="100" font-size-adjust="0.42215" font-stretch="normal" font-weight="700" letter-spacing="0" word-spacing="0"><tspan><tspan x="0">T</tspan><tspan fill="#50e7be" fill-opacity="0.996078431372549">URKEY</tspan></tspan></text>
</svg>
