<svg id="katman_1" data-name="katman 1" xmlns="http://www.w3.org/2000/svg" width="450px" height="300px" xmlns:xlink="http://www.w3.org/1999/xlink" viewBox="0 0 300 200"><defs><style>.cls-1{fill:#e30a17;}.cls-2{fill:#fff;}.cls-3{fill:#bc9119;}.cls-4{fill:#e8c926;}.cls-5{fill:#a1821d;}.cls-6{fill:#c9a20d;}.cls-7{fill:#b69318;}.cls-8{fill:#ddb900;}.cls-9{fill:#c8a10d;}.cls-10{fill:#e7ca4d;}.cls-11{fill:url(#Adsız_degrade);}.cls-12{fill:url(#Adsız_degrade_2);}.cls-13{fill:url(#Adsız_degrade_3);}.cls-14{fill:url(#Adsız_degrade_4);}.cls-15{fill:url(#Adsız_degrade_5);}.cls-16{fill:url(#Adsız_degrade_6);}.cls-17{fill:url(#Adsız_degrade_7);}.cls-18{fill:url(#Adsız_degrade_8);}.cls-19{fill:url(#Adsız_degrade_9);}.cls-20{fill:url(#Adsız_degrade_10);}</style><linearGradient id="Adsız_degrade" x1="37.6" y1="165.2" x2="54.2" y2="165.2" gradientTransform="matrix(1, 0, 0, -1, 0, 202)" gradientUnits="userSpaceOnUse"><stop offset="0" stop-color="#b69318"/><stop offset="0.57" stop-color="#ddb900"/><stop offset="1" stop-color="#ddb900"/></linearGradient><linearGradient id="Adsız_degrade_2" x1="37.6" y1="163.6" x2="54.2" y2="163.6" gradientTransform="matrix(1, 0, 0, -1, 0, 202)" gradientUnits="userSpaceOnUse"><stop offset="0" stop-color="#a1821d"/><stop offset="0.62" stop-color="#c9a20d"/><stop offset="1" stop-color="#c9a20d"/></linearGradient><linearGradient id="Adsız_degrade_3" x1="37.6" y1="158.55" x2="49.35" y2="158.55" gradientTransform="matrix(1, 0, 0, -1, 0, 202)" gradientUnits="userSpaceOnUse"><stop offset="0" stop-color="#b69318"/><stop offset="0.55" stop-color="#ddb900"/><stop offset="1" stop-color="#ddb900"/></linearGradient><linearGradient id="Adsız_degrade_4" x1="37.6" y1="170.3" x2="49.35" y2="170.3" gradientTransform="matrix(1, 0, 0, -1, 0, 202)" gradientUnits="userSpaceOnUse"><stop offset="0" stop-color="#b69318"/><stop offset="0.47" stop-color="#e8c926"/><stop offset="1" stop-color="#e8c926"/></linearGradient><linearGradient id="Adsız_degrade_5" x1="37.6" y1="170.3" x2="49.35" y2="170.3" gradientTransform="matrix(1, 0, 0, -1, 0, 202)" gradientUnits="userSpaceOnUse"><stop offset="0" stop-color="#a1821d"/><stop offset="0.66" stop-color="#b69318"/><stop offset="1" stop-color="#b69318"/></linearGradient><linearGradient id="Adsız_degrade_6" x1="37.59" y1="158.25" x2="42.68" y2="158.25" gradientTransform="matrix(1, 0, 0, -1, 0, 202)" gradientUnits="userSpaceOnUse"><stop offset="0" stop-color="#b69318"/><stop offset="0.37" stop-color="#caa30b"/><stop offset="1" stop-color="#caa30b"/></linearGradient><linearGradient id="Adsız_degrade_7" x1="37.6" y1="166.95" x2="49.88" y2="166.95" gradientTransform="matrix(1, 0, 0, -1, 0, 202)" gradientUnits="userSpaceOnUse"><stop offset="0" stop-color="#b69318"/><stop offset="0.54" stop-color="#e8c926"/><stop offset="1" stop-color="#e8c926"/></linearGradient><linearGradient id="Adsız_degrade_8" x1="37.6" y1="166.95" x2="49.88" y2="166.95" gradientTransform="matrix(1, 0, 0, -1, 0, 202)" gradientUnits="userSpaceOnUse"><stop offset="0" stop-color="#a1821d"/><stop offset="1" stop-color="#c9a20d"/><stop offset="1" stop-color="#c9a20d"/></linearGradient><linearGradient id="Adsız_degrade_9" x1="37.6" y1="161.85" x2="49.88" y2="161.85" gradientTransform="matrix(1, 0, 0, -1, 0, 202)" gradientUnits="userSpaceOnUse"><stop offset="0" stop-color="#b69318"/><stop offset="1" stop-color="#ddb900"/></linearGradient><linearGradient id="Adsız_degrade_10" x1="37.59" y1="170.55" x2="42.68" y2="170.55" gradientTransform="matrix(1, 0, 0, -1, 0, 202)" gradientUnits="userSpaceOnUse"><stop offset="0" stop-color="#c9a20d"/><stop offset="0.34" stop-color="#e8c926"/><stop offset="1" stop-color="#e8c926"/></linearGradient></defs><title>Flag_of_the_President_of_Turkey_2020</title><rect class="cls-1" width="300" height="200"/><path class="cls-2" d="M49.7,100A50,50,0,0,1,142,73.3a40,40,0,1,0,0,53.4A50,50,0,0,1,49.7,100Z"/><polygon class="cls-2" points="138.9 100 156.2 94.4 156.2 76.2 166.8 90.9 184.1 85.3 173.4 100 184.1 114.7 166.8 109.1 156.2 123.8 156.2 105.6 138.9 100"/><polygon class="cls-3" points="63.5 35.6 61.2 36.4 59.8 34.4 59.8 36.8 57.5 37.6 59.8 38.3 59.8 40.7 61.2 38.8 63.5 39.5 62.1 37.6 63.5 35.6"/><polygon class="cls-3" points="14 38.8 15.4 40.7 15.4 38.3 17.7 37.6 15.4 36.8 15.4 34.4 14 36.4 11.7 35.6 13.1 37.6 11.7 39.5 14 38.8"/><polygon class="cls-3" points="36.9 15.4 37.6 17.7 38.3 15.4 40.8 15.4 38.8 13.9 39.5 11.6 37.6 13.1 35.6 11.6 36.4 13.9 34.4 15.4 36.9 15.4"/><polygon class="cls-3" points="38.3 59.8 37.6 57.5 36.8 59.8 34.4 59.8 36.4 61.2 35.6 63.5 37.6 62.1 39.5 63.5 38.8 61.2 40.8 59.8 38.3 59.8"/><polygon class="cls-3" points="51.7 23.5 53.8 22.4 55.5 24.1 55.2 21.7 57.3 20.6 54.9 20.2 54.6 17.9 53.5 20 51.1 19.6 52.8 21.3 51.7 23.5"/><polygon class="cls-3" points="23.5 51.7 21.4 52.8 19.6 51.1 20 53.4 17.9 54.5 20.3 54.9 20.6 57.3 21.7 55.2 24.1 55.5 22.4 53.8 23.5 51.7"/><polygon class="cls-3" points="19.6 24.1 21.4 22.4 23.5 23.5 22.4 21.3 24.1 19.6 21.7 20 20.6 17.9 20.3 20.2 17.9 20.6 20 21.7 19.6 24.1"/><polygon class="cls-3" points="55.5 51.1 53.8 52.8 51.7 51.7 52.8 53.8 51.1 55.5 53.5 55.2 54.6 57.3 54.9 54.9 57.3 54.5 55.2 53.5 55.5 51.1"/><polygon class="cls-3" points="57.8 28.4 56 30 58.4 29.8 59.3 32 59.9 29.7 62.3 29.5 60.2 28.2 60.8 25.9 59 27.4 56.9 26.2 57.8 28.4"/><polygon class="cls-3" points="17.3 46.8 19.2 45.2 16.8 45.4 15.9 43.2 15.3 45.5 12.9 45.7 14.9 47 14.4 49.3 16.2 47.7 18.3 49 17.3 46.8"/><polygon class="cls-3" points="26.2 18.3 28.4 17.3 30 19.2 29.8 16.8 32 15.8 29.7 15.3 29.5 12.9 28.2 14.9 25.9 14.4 27.4 16.2 26.2 18.3"/><polygon class="cls-3" points="49 56.9 46.8 57.8 45.2 56 45.4 58.4 43.2 59.3 45.5 59.9 45.7 62.3 47 60.2 49.3 60.8 47.8 59 49 56.9"/><polygon class="cls-3" points="45.2 19.2 46.8 17.3 49 18.3 47.8 16.2 49.3 14.4 47 14.9 45.7 12.9 45.5 15.3 43.2 15.8 45.4 16.8 45.2 19.2"/><polygon class="cls-3" points="30 56 28.4 57.8 26.2 56.9 27.4 59 25.9 60.8 28.2 60.2 29.5 62.3 29.7 59.9 32 59.3 29.8 58.4 30 56"/><polygon class="cls-3" points="15.3 29.7 15.9 32 16.8 29.8 19.2 30 17.4 28.4 18.3 26.2 16.2 27.4 14.4 25.9 14.9 28.2 12.9 29.5 15.3 29.7"/><polygon class="cls-3" points="59.9 45.5 59.3 43.2 58.4 45.4 56 45.2 57.8 46.8 56.9 49 59 47.7 60.8 49.3 60.2 47 62.3 45.7 59.9 45.5"/><polygon class="cls-3" points="45.7 39.2 54.2 37.6 45.7 36 49.9 32.5 44.5 33 49.3 25.8 42.2 30.7 42.7 25.3 39.2 29.4 37.6 21 36 29.4 32.5 25.3 33 30.7 25.8 25.8 30.7 33 25.3 32.5 29.4 36 21 37.6 29.4 39.2 25.3 42.7 30.7 42.2 25.8 49.3 33 44.5 32.5 49.9 36 45.7 37.6 54.2 39.2 45.7 42.7 49.9 42.2 44.5 49.3 49.3 44.5 42.2 49.9 42.7 45.7 39.2"/><polygon class="cls-4" points="59.8 38.3 60.9 37.6 59.8 40.7 59.8 38.3"/><polygon class="cls-5" points="61.2 38.8 60.9 37.6 59.8 40.7 61.2 38.8"/><polygon class="cls-6" points="63.5 39.5 60.9 37.6 61.2 38.8 63.5 39.5"/><polygon class="cls-7" points="62.1 37.6 60.9 37.6 63.5 39.5 62.1 37.6"/><polygon class="cls-5" points="63.5 35.6 60.9 37.6 62.1 37.6 63.5 35.6"/><polygon class="cls-4" points="61.2 36.4 60.9 37.6 63.5 35.6 61.2 36.4"/><polygon class="cls-7" points="61.2 36.4 60.9 37.6 59.8 34.4 61.2 36.4"/><polygon class="cls-4" points="59.8 34.4 60.9 37.6 59.8 36.8 59.8 34.4"/><polygon class="cls-8" points="59.8 36.8 60.9 37.6 57.5 37.6 59.8 36.8"/><polygon class="cls-7" points="57.5 37.6 60.9 37.6 59.8 38.3 57.5 37.6"/><polygon class="cls-5" points="15.4 36.8 14.3 37.6 15.4 34.4 15.4 36.8"/><polygon class="cls-4" points="14 36.4 14.3 37.6 15.4 34.4 14 36.4"/><polygon class="cls-8" points="11.7 35.6 14.3 37.6 14 36.4 11.7 35.6"/><polygon class="cls-6" points="13.1 37.6 14.3 37.6 11.7 35.6 13.1 37.6"/><polygon class="cls-4" points="11.7 39.5 14.3 37.6 13.1 37.6 11.7 39.5"/><polygon class="cls-5" points="14 38.8 14.3 37.6 11.7 39.5 14 38.8"/><polygon class="cls-6" points="14 38.8 14.3 37.6 15.4 40.7 14 38.8"/><polygon class="cls-8" points="15.4 40.7 14.3 37.6 15.4 38.3 15.4 40.7"/><polygon class="cls-7" points="15.4 38.3 14.3 37.6 17.7 37.6 15.4 38.3"/><polygon class="cls-6" points="17.7 37.6 14.3 37.6 15.4 36.8 17.7 37.6"/><polygon class="cls-7" points="38.3 15.4 37.6 14.3 40.8 15.4 38.3 15.4"/><polygon class="cls-6" points="38.8 13.9 37.6 14.3 40.8 15.4 38.8 13.9"/><polygon class="cls-5" points="39.5 11.6 37.6 14.3 38.8 13.9 39.5 11.6"/><polygon class="cls-4" points="37.6 13.1 37.6 14.3 39.5 11.6 37.6 13.1"/><polygon class="cls-6" points="35.6 11.6 37.6 14.3 37.6 13.1 35.6 11.6"/><polygon class="cls-4" points="36.4 13.9 37.6 14.3 35.6 11.6 36.4 13.9"/><polygon class="cls-8" points="36.4 13.9 37.6 14.3 34.4 15.4 36.4 13.9"/><polygon class="cls-7" points="34.4 15.4 37.6 14.3 36.9 15.4 34.4 15.4"/><polygon class="cls-6" points="36.9 15.4 37.6 14.3 37.6 17.7 36.9 15.4"/><polygon class="cls-5" points="37.6 17.7 37.6 14.3 38.3 15.4 37.6 17.7"/><polygon class="cls-6" points="36.8 59.8 37.6 60.8 34.4 59.8 36.8 59.8"/><polygon class="cls-8" points="36.4 61.2 37.6 60.8 34.4 59.8 36.4 61.2"/><polygon class="cls-9" points="35.6 63.5 37.6 60.8 36.4 61.2 35.6 63.5"/><polygon class="cls-5" points="37.6 62.1 37.6 60.8 35.6 63.5 37.6 62.1"/><polygon class="cls-6" points="39.5 63.5 37.6 60.8 37.6 62.1 39.5 63.5"/><polygon class="cls-7" points="38.8 61.2 37.6 60.8 39.5 63.5 38.8 61.2"/><polygon class="cls-5" points="38.8 61.2 37.6 60.8 40.8 59.8 38.8 61.2"/><polygon class="cls-8" points="40.8 59.8 37.6 60.8 38.3 59.8 40.8 59.8"/><polygon class="cls-5" points="38.3 59.8 37.6 60.8 37.6 57.5 38.3 59.8"/><polygon class="cls-4" points="37.6 57.5 37.6 60.8 36.8 59.8 37.6 57.5"/><polygon class="cls-6" points="53.8 22.4 54 21.1 55.5 24.1 53.8 22.4"/><polygon class="cls-7" points="55.2 21.7 54 21.1 55.5 24.1 55.2 21.7"/><polygon class="cls-6" points="57.3 20.6 54 21.1 55.2 21.7 57.3 20.6"/><polygon class="cls-8" points="54.9 20.2 54 21.1 57.3 20.6 54.9 20.2"/><polygon class="cls-5" points="54.6 17.9 54 21.1 54.9 20.2 54.6 17.9"/><polygon class="cls-4" points="53.5 20 54 21.1 54.6 17.9 53.5 20"/><polygon class="cls-8" points="53.5 20 54 21.1 51.1 19.6 53.5 20"/><polygon class="cls-4" points="51.1 19.6 54 21.1 52.8 21.3 51.1 19.6"/><polygon class="cls-8" points="52.8 21.3 54 21.1 51.7 23.5 52.8 21.3"/><polygon class="cls-5" points="51.7 23.5 54 21.1 53.8 22.4 51.7 23.5"/><polygon class="cls-6" points="21.4 52.8 21.2 54 19.6 51.1 21.4 52.8"/><polygon class="cls-8" points="20 53.4 21.2 54 19.6 51.1 20 53.4"/><polygon class="cls-4" points="17.9 54.5 21.2 54 20 53.4 17.9 54.5"/><polygon class="cls-7" points="20.3 54.9 21.2 54 17.9 54.5 20.3 54.9"/><polygon class="cls-8" points="20.6 57.3 21.2 54 20.3 54.9 20.6 57.3"/><polygon class="cls-5" points="21.7 55.2 21.2 54 20.6 57.3 21.7 55.2"/><polygon class="cls-6" points="21.7 55.2 21.2 54 24.1 55.5 21.7 55.2"/><polygon class="cls-7" points="24.1 55.5 21.2 54 22.4 53.8 24.1 55.5"/><polygon class="cls-5" points="22.4 53.8 21.2 54 23.5 51.7 22.4 53.8"/><polygon class="cls-8" points="23.5 51.7 21.2 54 21.4 52.8 23.5 51.7"/><polygon class="cls-5" points="22.4 21.3 21.1 21.1 24.1 19.6 22.4 21.3"/><polygon class="cls-8" points="21.7 20 21.1 21.1 24.1 19.6 21.7 20"/><polygon class="cls-5" points="20.6 17.9 21.1 21.1 21.7 20 20.6 17.9"/><polygon class="cls-4" points="20.3 20.2 21.1 21.1 20.6 17.9 20.3 20.2"/><polygon class="cls-8" points="17.9 20.6 21.1 21.1 20.3 20.2 17.9 20.6"/><polygon class="cls-6" points="20 21.7 21.1 21.1 17.9 20.6 20 21.7"/><polygon class="cls-4" points="20 21.7 21.1 21.1 19.6 24.1 20 21.7"/><polygon class="cls-5" points="19.6 24.1 21.1 21.1 21.4 22.4 19.6 24.1"/><polygon class="cls-6" points="21.4 22.4 21.1 21.1 23.5 23.5 21.4 22.4"/><polygon class="cls-7" points="23.5 23.5 21.1 21.1 22.4 21.3 23.5 23.5"/><polygon class="cls-8" points="52.8 53.8 54 54 51.1 55.5 52.8 53.8"/><polygon class="cls-7" points="53.5 55.2 54 54 51.1 55.5 53.5 55.2"/><polygon class="cls-6" points="54.6 57.3 54 54 53.5 55.2 54.6 57.3"/><polygon class="cls-5" points="54.9 54.9 54 54 54.6 57.3 54.9 54.9"/><polygon class="cls-7" points="57.3 54.5 54 54 54.9 54.9 57.3 54.5"/><polygon class="cls-6" points="55.2 53.5 54 54 57.3 54.5 55.2 53.5"/><polygon class="cls-7" points="55.2 53.5 54 54 55.5 51.1 55.2 53.5"/><polygon class="cls-4" points="55.5 51.1 54 54 53.8 52.8 55.5 51.1"/><polygon class="cls-8" points="53.8 52.8 54 54 51.7 51.7 53.8 52.8"/><polygon class="cls-4" points="51.7 51.7 54 54 52.8 53.8 51.7 51.7"/><polygon class="cls-8" points="58.4 29.8 59.1 28.7 59.3 32 58.4 29.8"/><polygon class="cls-5" points="59.9 29.7 59.1 28.7 59.3 32 59.9 29.7"/><polygon class="cls-7" points="62.3 29.5 59.1 28.7 59.9 29.7 62.3 29.5"/><polygon class="cls-6" points="60.2 28.2 59.1 28.7 62.3 29.5 60.2 28.2"/><polygon class="cls-5" points="60.8 25.9 59.1 28.7 60.2 28.2 60.8 25.9"/><polygon class="cls-8" points="59 27.4 59.1 28.7 60.8 25.9 59 27.4"/><polygon class="cls-6" points="59 27.4 59.1 28.7 56.9 26.2 59 27.4"/><polygon class="cls-4" points="56.9 26.2 59.1 28.7 57.8 28.4 56.9 26.2"/><polygon class="cls-8" points="57.8 28.4 59.1 28.7 56 30 57.8 28.4"/><polygon class="cls-7" points="56 30 59.1 28.7 58.4 29.8 56 30"/><polygon class="cls-5" points="16.8 45.4 16.1 46.5 15.9 43.2 16.8 45.4"/><polygon class="cls-4" points="15.3 45.5 16.1 46.5 15.9 43.2 15.3 45.5"/><polygon class="cls-8" points="12.9 45.7 16.1 46.5 15.3 45.5 12.9 45.7"/><polygon class="cls-6" points="14.9 47 16.1 46.5 12.9 45.7 14.9 47"/><polygon class="cls-4" points="14.4 49.3 16.1 46.5 14.9 47 14.4 49.3"/><polygon class="cls-5" points="16.2 47.7 16.1 46.5 14.4 49.3 16.2 47.7"/><polygon class="cls-7" points="16.2 47.7 16.1 46.5 18.3 49 16.2 47.7"/><polygon class="cls-8" points="18.3 49 16.1 46.5 17.3 46.8 18.3 49"/><polygon class="cls-5" points="17.3 46.8 16.1 46.5 19.2 45.2 17.3 46.8"/><polygon class="cls-8" points="19.2 45.2 16.1 46.5 16.8 45.4 19.2 45.2"/><polygon class="cls-5" points="29.8 16.8 28.7 16.1 32 15.8 29.8 16.8"/><polygon class="cls-6" points="29.7 15.3 28.7 16.1 32 15.8 29.7 15.3"/><polygon class="cls-5" points="29.5 12.9 28.7 16.1 29.7 15.3 29.5 12.9"/><polygon class="cls-4" points="28.2 14.9 28.7 16.1 29.5 12.9 28.2 14.9"/><polygon class="cls-8" points="25.9 14.4 28.7 16.1 28.2 14.9 25.9 14.4"/><polygon class="cls-6" points="27.4 16.2 28.7 16.1 25.9 14.4 27.4 16.2"/><polygon class="cls-4" points="27.4 16.2 28.7 16.1 26.2 18.3 27.4 16.2"/><polygon class="cls-5" points="26.2 18.3 28.7 16.1 28.4 17.3 26.2 18.3"/><polygon class="cls-6" points="28.4 17.3 28.7 16.1 30 19.2 28.4 17.3"/><polygon class="cls-5" points="30 19.2 28.7 16.1 29.8 16.8 30 19.2"/><polygon class="cls-8" points="45.4 58.4 46.5 59.1 43.2 59.3 45.4 58.4"/><polygon class="cls-7" points="45.5 59.9 46.5 59.1 43.2 59.3 45.5 59.9"/><polygon class="cls-6" points="45.7 62.3 46.5 59.1 45.5 59.9 45.7 62.3"/><polygon class="cls-5" points="47 60.2 46.5 59.1 45.7 62.3 47 60.2"/><polygon class="cls-7" points="49.3 60.8 46.5 59.1 47 60.2 49.3 60.8"/><polygon class="cls-6" points="47.8 59 46.5 59.1 49.3 60.8 47.8 59"/><polygon class="cls-5" points="47.8 59 46.5 59.1 49 56.9 47.8 59"/><polygon class="cls-8" points="49 56.9 46.5 59.1 46.8 57.8 49 56.9"/><polygon class="cls-6" points="46.8 57.8 46.5 59.1 45.2 56 46.8 57.8"/><polygon class="cls-4" points="45.2 56 46.5 59.1 45.4 58.4 45.2 56"/><polygon class="cls-6" points="46.8 17.3 46.5 16.1 49 18.3 46.8 17.3"/><polygon class="cls-7" points="47.8 16.2 46.5 16.1 49 18.3 47.8 16.2"/><polygon class="cls-5" points="49.3 14.4 46.5 16.1 47.8 16.2 49.3 14.4"/><polygon class="cls-6" points="47 14.9 46.5 16.1 49.3 14.4 47 14.9"/><polygon class="cls-7" points="45.7 12.9 46.5 16.1 47 14.9 45.7 12.9"/><polygon class="cls-4" points="45.5 15.3 46.5 16.1 45.7 12.9 45.5 15.3"/><polygon class="cls-8" points="45.5 15.3 46.5 16.1 43.2 15.8 45.5 15.3"/><polygon class="cls-6" points="43.2 15.8 46.5 16.1 45.4 16.8 43.2 15.8"/><polygon class="cls-8" points="45.4 16.8 46.5 16.1 45.2 19.2 45.4 16.8"/><polygon class="cls-7" points="45.2 19.2 46.5 16.1 46.8 17.3 45.2 19.2"/><polygon class="cls-8" points="28.4 57.8 28.7 59.1 26.2 56.9 28.4 57.8"/><polygon class="cls-6" points="27.4 59 28.7 59.1 26.2 56.9 27.4 59"/><polygon class="cls-4" points="25.9 60.8 28.7 59.1 27.4 59 25.9 60.8"/><polygon class="cls-5" points="28.2 60.2 28.7 59.1 25.9 60.8 28.2 60.2"/><polygon class="cls-6" points="29.5 62.3 28.7 59.1 28.2 60.2 29.5 62.3"/><polygon class="cls-5" points="29.7 59.9 28.7 59.1 29.5 62.3 29.7 59.9"/><polygon class="cls-8" points="29.7 59.9 28.7 59.1 32 59.3 29.7 59.9"/><polygon class="cls-6" points="32 59.3 28.7 59.1 29.8 58.4 32 59.3"/><polygon class="cls-5" points="29.8 58.4 28.7 59.1 30 56 29.8 58.4"/><polygon class="cls-4" points="30 56 28.7 59.1 28.4 57.8 30 56"/><polygon class="cls-5" points="17.4 28.4 16.1 28.7 18.3 26.2 17.4 28.4"/><polygon class="cls-8" points="16.2 27.4 16.1 28.7 18.3 26.2 16.2 27.4"/><polygon class="cls-6" points="14.4 25.9 16.1 28.7 16.2 27.4 14.4 25.9"/><polygon class="cls-8" points="14.9 28.2 16.1 28.7 14.4 25.9 14.9 28.2"/><polygon class="cls-4" points="12.9 29.5 16.1 28.7 14.9 28.2 12.9 29.5"/><polygon class="cls-7" points="15.3 29.7 16.1 28.7 12.9 29.5 15.3 29.7"/><polygon class="cls-6" points="15.3 29.7 16.1 28.7 15.9 32 15.3 29.7"/><polygon class="cls-5" points="15.9 32 16.1 28.7 16.8 29.8 15.9 32"/><polygon class="cls-7" points="16.8 29.8 16.1 28.7 19.2 30 16.8 29.8"/><polygon class="cls-6" points="19.2 30 16.1 28.7 17.4 28.4 19.2 30"/><polygon class="cls-4" points="57.8 46.8 59.1 46.5 56.9 49 57.8 46.8"/><polygon class="cls-5" points="59 47.7 59.1 46.5 56.9 49 59 47.7"/><polygon class="cls-6" points="60.8 49.3 59.1 46.5 59 47.7 60.8 49.3"/><polygon class="cls-8" points="60.2 47 59.1 46.5 60.8 49.3 60.2 47"/><polygon class="cls-7" points="62.3 45.7 59.1 46.5 60.2 47 62.3 45.7"/><polygon class="cls-8" points="59.9 45.5 59.1 46.5 62.3 45.7 59.9 45.5"/><polygon class="cls-5" points="59.9 45.5 59.1 46.5 59.3 43.2 59.9 45.5"/><polygon class="cls-4" points="59.3 43.2 59.1 46.5 58.4 45.4 59.3 43.2"/><polygon class="cls-6" points="58.4 45.4 59.1 46.5 56 45.2 58.4 45.4"/><polygon class="cls-8" points="56 45.2 59.1 46.5 57.8 46.8 56 45.2"/><polygon class="cls-10" points="37.6 21 37.6 37.6 36 29.4 37.6 21"/><polygon class="cls-5" points="37.6 21 37.6 37.6 39.2 29.4 37.6 21"/><polygon class="cls-5" points="37.6 54.2 37.6 37.6 39.2 45.7 37.6 54.2"/><polygon class="cls-6" points="37.6 54.2 37.6 37.6 36 45.7 37.6 54.2"/><polygon class="cls-6" points="21 37.6 37.6 37.6 29.4 39.2 21 37.6"/><polygon class="cls-8" points="21 37.6 37.6 37.6 29.4 36 21 37.6"/><polygon class="cls-11" points="54.2 37.6 37.6 37.6 45.7 36 54.2 37.6"/><polygon class="cls-12" points="54.2 37.6 37.6 37.6 45.7 39.2 54.2 37.6"/><polygon class="cls-8" points="25.8 25.8 37.6 37.6 30.7 33 25.8 25.8"/><polygon class="cls-6" points="25.8 25.8 37.6 37.6 33 30.7 25.8 25.8"/><polygon class="cls-7" points="49.3 49.3 37.6 37.6 44.5 42.2 49.3 49.3"/><polygon class="cls-13" points="49.3 49.3 37.6 37.6 42.2 44.5 49.3 49.3"/><polygon class="cls-7" points="25.8 49.3 37.6 37.6 33 44.5 25.8 49.3"/><polygon class="cls-8" points="25.8 49.3 37.6 37.6 30.7 42.2 25.8 49.3"/><polygon class="cls-14" points="49.3 25.8 37.6 37.6 42.2 30.7 49.3 25.8"/><polygon class="cls-15" points="49.3 25.8 37.6 37.6 44.5 33 49.3 25.8"/><polygon class="cls-4" points="33 30.7 37.6 37.6 32.5 25.3 33 30.7"/><polygon class="cls-7" points="36 29.4 37.6 37.6 32.5 25.3 36 29.4"/><polygon class="cls-5" points="42.2 44.5 37.6 37.6 42.7 49.9 42.2 44.5"/><polygon class="cls-16" points="39.2 45.7 37.6 37.6 42.7 49.9 39.2 45.7"/><polygon class="cls-7" points="30.7 42.2 37.6 37.6 25.3 42.7 30.7 42.2"/><polygon class="cls-8" points="29.4 39.2 37.6 37.6 25.3 42.7 29.4 39.2"/><polygon class="cls-17" points="44.5 33 37.6 37.6 49.9 32.5 44.5 33"/><polygon class="cls-18" points="45.7 36 37.6 37.6 49.9 32.5 45.7 36"/><polygon class="cls-6" points="29.4 36 37.6 37.6 25.3 32.5 29.4 36"/><polygon class="cls-8" points="30.7 33 37.6 37.6 25.3 32.5 30.7 33"/><polygon class="cls-7" points="45.7 39.2 37.6 37.6 49.9 42.7 45.7 39.2"/><polygon class="cls-19" points="44.5 42.2 37.6 37.6 49.9 42.7 44.5 42.2"/><polygon class="cls-7" points="36 45.7 37.6 37.6 32.5 49.9 36 45.7"/><polygon class="cls-6" points="33 44.5 37.6 37.6 32.5 49.9 33 44.5"/><polygon class="cls-20" points="39.2 29.4 37.6 37.6 42.7 25.3 39.2 29.4"/><polygon class="cls-5" points="42.2 30.7 37.6 37.6 42.7 25.3 42.2 30.7"/></svg>